<svg width="235" height="34" viewBox="0 0 235 34" fill="none" xmlns="http://www.w3.org/2000/svg">
<path d="M13.8371 0L0.0462952 13.2488L10.2793 26.1442L17.1515 26.0302L24.07 19.953L20.6513 16.1791L15.1466 21.0134L12.7477 21.059L6.93009 13.7049L15.9115 5.06238H25.959L35.1027 16.886V8.55134L28.4854 0H13.8371Z" fill="#BEF264"/>
<path d="M18.0671 7.9698L11.1485 14.0584L14.5673 17.8095L20.072 12.9866L22.4593 12.9524L28.2885 20.3065L19.2839 28.9376H9.25955L0 16.9886V25.3233L6.72156 34H21.3815L35.1027 20.7968V20.6942L24.9393 7.84441L18.0671 7.9698Z" fill="#BEF264"/>
<path d="M55.9118 24.6323C54.7831 24.6323 53.7716 24.451 52.8775 24.0883C51.9832 23.7257 51.265 23.1889 50.7226 22.4781C50.1949 21.7673 49.9163 20.9114 49.8871 19.9104H53.8889C53.9475 20.4762 54.1454 20.9114 54.4826 21.216C54.8197 21.5062 55.2595 21.6512 55.8019 21.6512C56.3589 21.6512 56.7987 21.5279 57.1212 21.2813C57.4437 21.0202 57.605 20.6647 57.605 20.215C57.605 19.8379 57.473 19.526 57.2092 19.2794C56.9599 19.0327 56.6447 18.8297 56.2637 18.6701C55.8971 18.5105 55.3694 18.3292 54.6805 18.1261C53.6837 17.8214 52.8701 17.5168 52.2398 17.2122C51.6094 16.9075 51.0671 16.4578 50.6127 15.863C50.1582 15.2683 49.931 14.4922 49.931 13.5347C49.931 12.1131 50.4514 11.0033 51.4922 10.2054C52.5329 9.39305 53.8889 8.98689 55.56 8.98689C57.2604 8.98689 58.631 9.39305 59.6718 10.2054C60.7126 11.0033 61.2696 12.1203 61.343 13.5565H57.2751C57.2458 13.0633 57.0625 12.6788 56.7254 12.4032C56.3882 12.1131 55.9558 11.968 55.4281 11.968C54.9736 11.968 54.6072 12.0913 54.3287 12.3379C54.0501 12.57 53.9109 12.911 53.9109 13.3606C53.9109 13.8539 54.1454 14.2383 54.6145 14.5139C55.0836 14.7895 55.8165 15.087 56.8134 15.4061C57.8101 15.7398 58.6164 16.0589 59.2321 16.3635C59.8624 16.6682 60.4047 17.1106 60.8592 17.6909C61.3136 18.2711 61.5409 19.0182 61.5409 19.9322C61.5409 20.8026 61.3136 21.5932 60.8592 22.304C60.4195 23.0148 59.7744 23.5806 58.9242 24.0013C58.074 24.422 57.0699 24.6323 55.9118 24.6323ZM63.1072 18.409C63.1072 17.1469 63.3637 16.0444 63.8768 15.1014C64.4045 14.1585 65.1301 13.4332 66.0536 12.9254C66.9918 12.4177 68.0618 12.1638 69.2638 12.1638C70.803 12.1638 72.0859 12.5628 73.1118 13.3606C74.1528 14.1585 74.8344 15.2828 75.1567 16.7334H71.1548C70.8174 15.805 70.1654 15.3408 69.1979 15.3408C68.5089 15.3408 67.9592 15.6092 67.5488 16.1459C67.1383 16.6682 66.9331 17.4225 66.9331 18.409C66.9331 19.3954 67.1383 20.157 67.5488 20.6938C67.9592 21.216 68.5089 21.4771 69.1979 21.4771C70.1654 21.4771 70.8174 21.0129 71.1548 20.0845H75.1567C74.8344 21.5062 74.1528 22.6231 73.1118 23.4355C72.0708 24.2479 70.7886 24.6541 69.2638 24.6541C68.0618 24.6541 66.9918 24.4002 66.0536 23.8925C65.1301 23.3847 64.4045 22.6594 63.8768 21.7165C63.3637 20.7735 63.1072 19.671 63.1072 18.409ZM88.7338 18.2131C88.7338 18.5613 88.7118 18.9239 88.6678 19.3011H80.1584C80.2168 20.0555 80.4586 20.6358 80.884 21.0419C81.3237 21.4336 81.859 21.6294 82.4891 21.6294C83.427 21.6294 84.0798 21.2378 84.4461 20.4544H88.4479C88.2425 21.2523 87.8687 21.9703 87.3265 22.6086C86.7988 23.247 86.1316 23.7474 85.3256 24.1101C84.5196 24.4727 83.6181 24.6541 82.621 24.6541C81.4192 24.6541 80.3487 24.4002 79.4108 23.8925C78.4728 23.3847 77.7396 22.6594 77.2119 21.7165C76.6842 20.7735 76.4203 19.671 76.4203 18.409C76.4203 17.1469 76.6766 16.0444 77.1899 15.1014C77.7176 14.1585 78.4508 13.4332 79.3888 12.9254C80.3267 12.4177 81.4041 12.1638 82.621 12.1638C83.8084 12.1638 84.8638 12.4105 85.7874 12.9037C86.7109 13.3969 87.4289 14.1005 87.9422 15.0144C88.4699 15.9283 88.7338 16.9946 88.7338 18.2131ZM84.8858 17.2339C84.8858 16.5956 84.666 16.0879 84.2262 15.7107C83.7864 15.3335 83.2367 15.145 82.5771 15.145C81.947 15.145 81.4117 15.3263 80.9719 15.689C80.5466 16.0516 80.2827 16.5666 80.1803 17.2339H84.8858ZM98.1936 12.2074C99.6297 12.2074 100.773 12.6716 101.624 13.6C102.488 14.5139 102.921 15.776 102.921 17.3862V24.48H99.183V17.8867C99.183 17.0743 98.97 16.4433 98.5454 15.9936C98.12 15.5439 97.5484 15.319 96.8303 15.319C96.1116 15.319 95.5399 15.5439 95.1152 15.9936C94.6899 16.4433 94.4775 17.0743 94.4775 17.8867V24.48H90.7175V12.3379H94.4775V13.9482C94.8582 13.4114 95.3715 12.9907 96.0167 12.6861C96.6613 12.367 97.3869 12.2074 98.1936 12.2074ZM117.099 18.2131C117.099 18.5613 117.077 18.9239 117.033 19.3011H108.524C108.583 20.0555 108.825 20.6358 109.25 21.0419C109.689 21.4336 110.225 21.6294 110.855 21.6294C111.793 21.6294 112.445 21.2378 112.812 20.4544H116.814C116.609 21.2523 116.235 21.9703 115.692 22.6086C115.164 23.247 114.498 23.7474 113.691 24.1101C112.885 24.4727 111.984 24.6541 110.987 24.6541C109.785 24.6541 108.715 24.4002 107.776 23.8925C106.838 23.3847 106.105 22.6594 105.578 21.7165C105.05 20.7735 104.786 19.671 104.786 18.409C104.786 17.1469 105.043 16.0444 105.556 15.1014C106.083 14.1585 106.816 13.4332 107.754 12.9254C108.693 12.4177 109.77 12.1638 110.987 12.1638C112.174 12.1638 113.229 12.4105 114.153 12.9037C115.076 13.3969 115.795 14.1005 116.308 15.0144C116.836 15.9283 117.099 16.9946 117.099 18.2131ZM113.251 17.2339C113.251 16.5956 113.032 16.0879 112.592 15.7107C112.152 15.3335 111.602 15.145 110.943 15.145C110.313 15.145 109.777 15.3263 109.338 15.689C108.913 16.0516 108.649 16.5666 108.546 17.2339H113.251ZM124.668 24.6323C123.539 24.6323 122.528 24.451 121.634 24.0883C120.74 23.7257 120.021 23.1889 119.479 22.4781C118.951 21.7673 118.673 20.9114 118.643 19.9104H122.645C122.704 20.4762 122.902 20.9114 123.239 21.216C123.576 21.5062 124.016 21.6512 124.558 21.6512C125.116 21.6512 125.555 21.5279 125.878 21.2813C126.2 21.0202 126.361 20.6647 126.361 20.215C126.361 19.8379 126.229 19.526 125.965 19.2794C125.716 19.0327 125.401 18.8297 125.02 18.6701C124.654 18.5105 124.126 18.3292 123.437 18.1261C122.44 17.8214 121.626 17.5168 120.996 17.2122C120.366 16.9075 119.823 16.4578 119.369 15.863C118.915 15.2683 118.687 14.4922 118.687 13.5347C118.687 12.1131 119.208 11.0033 120.249 10.2054C121.29 9.39305 122.645 8.98689 124.316 8.98689C126.017 8.98689 127.387 9.39305 128.428 10.2054C129.469 11.0033 130.026 12.1203 130.099 13.5565H126.031C126.002 13.0633 125.819 12.6788 125.482 12.4032C125.144 12.1131 124.712 11.968 124.184 11.968C123.73 11.968 123.363 12.0913 123.085 12.3379C122.807 12.57 122.667 12.911 122.667 13.3606C122.667 13.8539 122.902 14.2383 123.371 14.5139C123.84 14.7895 124.573 15.087 125.57 15.4061C126.567 15.7398 127.373 16.0589 127.988 16.3635C128.619 16.6682 129.161 17.1106 129.616 17.6909C130.07 18.2711 130.297 19.0182 130.297 19.9322C130.297 20.8026 130.07 21.5932 129.616 22.304C129.176 23.0148 128.531 23.5806 127.681 24.0013C126.831 24.422 125.826 24.6323 124.668 24.6323ZM150.224 12.3379L146.904 24.48H142.748L140.813 16.6029L138.812 24.48H134.678L131.336 12.3379H135.096L136.833 21.0202L138.9 12.3379H142.88L144.969 20.9766L146.684 12.3379H150.224ZM153.548 11.0758C152.889 11.0758 152.347 10.8873 151.921 10.5101C151.511 10.1184 151.306 9.63969 151.306 9.07393C151.306 8.49368 151.511 8.01496 151.921 7.63777C152.347 7.24609 152.889 7.05025 153.548 7.05025C154.194 7.05025 154.721 7.24609 155.132 7.63777C155.557 8.01496 155.769 8.49368 155.769 9.07393C155.769 9.63969 155.557 10.1184 155.132 10.5101C154.721 10.8873 154.194 11.0758 153.548 11.0758ZM155.417 12.3379V24.48H151.657V12.3379H155.417ZM164.981 21.3248V24.48H163.068C161.705 24.48 160.642 24.1536 159.88 23.5008C159.117 22.8335 158.736 21.7527 158.736 20.2586V15.4278H157.241V12.3379H158.736V9.37857H162.496V12.3379H164.959V15.4278H162.496V20.3021C162.496 20.6647 162.584 20.9259 162.76 21.0854C162.936 21.245 163.229 21.3248 163.64 21.3248H164.981ZM166.328 18.409C166.328 17.1469 166.584 16.0444 167.097 15.1014C167.625 14.1585 168.351 13.4332 169.274 12.9254C170.212 12.4177 171.282 12.1638 172.484 12.1638C174.024 12.1638 175.306 12.5628 176.332 13.3606C177.373 14.1585 178.054 15.2828 178.377 16.7334H174.375C174.038 15.805 173.386 15.3408 172.419 15.3408C171.729 15.3408 171.18 15.6092 170.769 16.1459C170.358 16.6682 170.154 17.4225 170.154 18.409C170.154 19.3954 170.358 20.157 170.769 20.6938C171.18 21.216 171.729 21.4771 172.419 21.4771C173.386 21.4771 174.038 21.0129 174.375 20.0845H178.377C178.054 21.5062 177.373 22.6231 176.332 23.4355C175.291 24.2479 174.009 24.6541 172.484 24.6541C171.282 24.6541 170.212 24.4002 169.274 23.8925C168.351 23.3847 167.625 22.6594 167.097 21.7165C166.584 20.7735 166.328 19.671 166.328 18.409ZM187.931 12.2074C189.338 12.2074 190.466 12.6716 191.317 13.6C192.167 14.5139 192.592 15.776 192.592 17.3862V24.48H188.854V17.8867C188.854 17.0743 188.641 16.4433 188.216 15.9936C187.791 15.5439 187.219 15.319 186.501 15.319C185.783 15.319 185.211 15.5439 184.786 15.9936C184.361 16.4433 184.149 17.0743 184.149 17.8867V24.48H180.389V8.37761H184.149V13.9699C184.529 13.4332 185.05 13.0052 185.71 12.6861C186.369 12.367 187.109 12.2074 187.931 12.2074ZM206.77 18.2131C206.77 18.5613 206.748 18.9239 206.704 19.3011H198.195C198.254 20.0555 198.496 20.6358 198.921 21.0419C199.36 21.4336 199.896 21.6294 200.526 21.6294C201.464 21.6294 202.116 21.2378 202.483 20.4544H206.485C206.28 21.2523 205.906 21.9703 205.363 22.6086C204.835 23.247 204.169 23.7474 203.362 24.1101C202.556 24.4727 201.655 24.6541 200.658 24.6541C199.456 24.6541 198.386 24.4002 197.447 23.8925C196.509 23.3847 195.776 22.6594 195.249 21.7165C194.721 20.7735 194.457 19.671 194.457 18.409C194.457 17.1469 194.714 16.0444 195.227 15.1014C195.754 14.1585 196.487 13.4332 197.425 12.9254C198.364 12.4177 199.441 12.1638 200.658 12.1638C201.845 12.1638 202.901 12.4105 203.824 12.9037C204.748 13.3969 205.466 14.1005 205.979 15.0144C206.507 15.9283 206.77 16.9946 206.77 18.2131ZM202.922 17.2339C202.922 16.5956 202.703 16.0879 202.263 15.7107C201.823 15.3335 201.273 15.145 200.614 15.145C199.984 15.145 199.448 15.3263 199.009 15.689C198.584 16.0516 198.32 16.5666 198.217 17.2339H202.922ZM212.514 14.3616C212.954 13.6943 213.504 13.1721 214.163 12.7949C214.823 12.4032 215.556 12.2074 216.362 12.2074V16.1459H215.329C214.391 16.1459 213.687 16.349 213.218 16.7552C212.749 17.1469 212.514 17.8432 212.514 18.8442V24.48H208.754V12.3379H212.514V14.3616ZM219.138 24.6106C218.643 24.6106 218.237 24.4691 217.918 24.1862C217.61 23.8925 217.456 23.5334 217.456 23.1091C217.456 22.6739 217.61 22.3094 217.918 22.0157C218.237 21.7219 218.643 21.575 219.138 21.575C219.622 21.575 220.018 21.7219 220.326 22.0157C220.644 22.3094 220.804 22.6739 220.804 23.1091C220.804 23.5334 220.644 23.8925 220.326 24.1862C220.018 24.4691 219.622 24.6106 219.138 24.6106ZM223.484 16.1024C223.072 16.1024 222.733 15.9846 222.467 15.7488C222.211 15.504 222.083 15.2048 222.083 14.8512C222.083 14.4886 222.211 14.1894 222.467 13.9536C222.733 13.7088 223.072 13.5864 223.484 13.5864C223.888 13.5864 224.217 13.7088 224.474 13.9536C224.74 14.1894 224.872 14.4886 224.872 14.8512C224.872 15.2048 224.74 15.504 224.474 15.7488C224.217 15.9846 223.888 16.1024 223.484 16.1024ZM224.652 16.8912V24.48H222.302V16.8912H224.652ZM229.846 24.5888C229.095 24.5888 228.417 24.4302 227.812 24.1128C227.217 23.7955 226.745 23.3422 226.396 22.7528C226.058 22.1635 225.888 21.4744 225.888 20.6856C225.888 19.9059 226.062 19.2214 226.41 18.632C226.758 18.0336 227.235 17.5758 227.839 17.2584C228.444 16.9411 229.122 16.7824 229.873 16.7824C230.625 16.7824 231.303 16.9411 231.907 17.2584C232.512 17.5758 232.989 18.0336 233.336 18.632C233.685 19.2214 233.859 19.9059 233.859 20.6856C233.859 21.4654 233.68 22.1544 233.323 22.7528C232.975 23.3422 232.494 23.7955 231.88 24.1128C231.275 24.4302 230.598 24.5888 229.846 24.5888ZM229.846 22.576C230.295 22.576 230.675 22.4128 230.986 22.0864C231.307 21.76 231.467 21.2931 231.467 20.6856C231.467 20.0782 231.312 19.6112 231 19.2848C230.698 18.9584 230.323 18.7952 229.873 18.7952C229.416 18.7952 229.035 18.9584 228.733 19.2848C228.43 19.6022 228.279 20.0691 228.279 20.6856C228.279 21.2931 228.426 21.76 228.719 22.0864C229.021 22.4128 229.397 22.576 229.846 22.576Z" fill="white"/>
</svg>
